<svg width="34" height="294" viewBox="0 0 34 294" fill="none" xmlns="http://www.w3.org/2000/svg">
<path d="M27.5186 2.28516L27.5186 5.72754L10.0869 16.5967L27.5186 16.5967L27.5186 19.3652L6 19.3652L6 16.0986L23.417 5.06836L6 5.06836L6 2.28516L27.5186 2.28516ZM27.5186 24.2432L27.5186 39.9316L24.8818 39.9316L24.8818 27.085L18.3486 27.085L18.3486 38.9648L15.8584 38.9648L15.8584 27.085L8.56348 27.085L8.56347 40.1514L6 40.1514L6 24.2432L27.5186 24.2432ZM27.5186 47.1387L14.2178 47.1387C12.6553 47.1387 11.3564 47.4316 10.3213 48.0176C8.75879 48.8867 7.97754 50.3516 7.97754 52.4121C7.97754 54.8828 8.82226 56.5625 10.5117 57.4512C11.4297 57.9297 12.665 58.1689 14.2178 58.1689L27.5186 58.1689L27.5186 61.1279L15.4336 61.1279C12.7871 61.1279 10.751 60.7715 9.32519 60.0586C6.72754 58.75 5.42871 56.2793 5.42871 52.6465C5.42871 49.0137 6.72754 46.5479 9.32519 45.249C10.751 44.5361 12.7871 44.1797 15.4336 44.1797L27.5186 44.1797L27.5186 47.1387ZM27.5186 65.9326L27.5186 81.6211L24.8818 81.6211L24.8818 68.7744L18.3486 68.7744L18.3486 80.6543L15.8584 80.6543L15.8584 68.7744L8.56347 68.7744L8.56347 81.8408L6 81.8408L6 65.9326L27.5186 65.9326ZM17.6602 95.6689C17.6602 97.0361 17.9336 98.1152 18.4805 98.9062C19.0273 99.707 20.0137 100.107 21.4394 100.107C22.9727 100.107 24.0176 99.5508 24.5742 98.4375C24.8672 97.8418 25.0137 97.0459 25.0137 96.0498L25.0137 88.9307L17.6602 88.9307L17.6602 95.6689ZM27.5186 86.0156L27.5186 95.9766C27.5186 97.6172 27.2793 98.9697 26.8008 100.034C25.8828 102.056 24.1885 103.066 21.7178 103.066C20.4287 103.066 19.374 102.798 18.5537 102.261C17.7334 101.733 17.0742 100.991 16.5762 100.034C16.2344 100.874 15.7852 101.504 15.2285 101.924C14.6719 102.354 13.7686 102.593 12.5186 102.642L9.63281 102.744C8.8125 102.773 8.20214 102.842 7.80175 102.949C7.11816 103.125 6.67871 103.437 6.48339 103.887L6 103.887L6 100.312C6.18554 100.215 6.4248 100.137 6.71777 100.078C7.01074 100.02 7.57714 99.9707 8.41699 99.9316L12.0059 99.7559C13.4121 99.6875 14.3545 99.165 14.833 98.1885C15.0967 97.6318 15.2285 96.7578 15.2285 95.5664L15.2285 88.9307L6 88.9307L6 86.0156L27.5186 86.0156ZM28.1045 116.631C28.1045 120.43 26.8838 123.242 24.4424 125.068C22.5381 126.494 20.1016 127.207 17.1328 127.207C13.9199 127.207 11.249 126.392 9.12011 124.761C6.62011 122.847 5.37011 120.117 5.37011 116.572C5.37011 113.262 6.46386 110.659 8.65136 108.765C10.7607 107.075 13.4268 106.23 16.6494 106.23C19.5596 106.23 22.0498 106.953 24.1201 108.398C26.7764 110.254 28.1045 112.998 28.1045 116.631ZM7.97753 116.924C7.97753 119.492 8.8955 121.348 10.7314 122.49C12.5771 123.643 14.6963 124.219 17.0889 124.219C19.6182 124.219 21.6543 123.555 23.1973 122.227C24.7402 120.908 25.5117 119.102 25.5117 116.807C25.5117 114.58 24.7451 112.764 23.2119 111.357C21.6885 109.951 19.4375 109.248 16.459 109.248C14.0762 109.248 12.0644 109.849 10.4238 111.05C8.79296 112.261 7.97753 114.219 7.97753 116.924ZM33.2021 118.096L33.2021 120.835L30.1553 120.835L30.1553 118.096L33.2021 118.096ZM33.2021 113.262L33.2021 116.001L30.1553 116.001L30.1553 113.262L33.2021 113.262ZM27.5185 130.972L27.5185 145.898L24.8818 145.898L24.8818 133.887L18.3486 133.887L18.3486 144.448L15.7851 144.448L15.7852 133.887L5.99999 133.887L5.99999 130.972L27.5185 130.972ZM27.5185 149.312L27.5185 164.238L24.8818 164.238L24.8818 152.227L18.3486 152.227L18.3486 162.788L15.7851 162.788L15.7851 152.227L5.99999 152.227L5.99999 149.312L27.5185 149.312ZM27.5185 167.373L27.5185 170.815L10.0869 181.685L27.5185 181.685L27.5185 184.453L5.99999 184.453L5.99999 181.187L23.417 170.156L5.99999 170.156L5.99999 167.373L27.5185 167.373ZM27.5185 192.217L14.2178 192.217C12.6553 192.217 11.3564 192.51 10.3213 193.096C8.75878 193.965 7.97753 195.43 7.97753 197.49C7.97753 199.961 8.82226 201.641 10.5117 202.529C11.4297 203.008 12.665 203.247 14.2178 203.247L27.5185 203.247L27.5185 206.206L15.4336 206.206C12.7871 206.206 10.751 205.85 9.32519 205.137C6.72753 203.828 5.4287 201.357 5.4287 197.725C5.4287 194.092 6.72753 191.626 9.32519 190.327C10.751 189.614 12.7871 189.258 15.4336 189.258L27.5185 189.258L27.5185 192.217ZM27.5185 210.732L27.5185 214.175L10.0869 225.044L27.5185 225.044L27.5185 227.812L5.99999 227.812L5.99999 224.546L23.417 213.516L5.99999 213.516L5.99999 210.732L27.5185 210.732ZM28.0752 241.714C28.0752 243.735 27.6846 245.483 26.9033 246.958C25.7803 249.097 23.8125 250.405 21 250.884L21 247.998C22.5723 247.646 23.7148 246.919 24.4277 245.815C25.1504 244.712 25.5117 243.32 25.5117 241.641C25.5117 239.648 24.7646 237.969 23.2705 236.602C21.7764 235.244 19.5498 234.565 16.5908 234.565C14.0322 234.565 11.9473 235.127 10.3359 236.25C8.73436 237.373 7.93358 239.204 7.93358 241.743C7.93358 243.687 8.49511 245.293 9.61815 246.562C10.751 247.842 12.5771 248.496 15.0967 248.525L15.0967 241.787L17.5137 241.787L17.5137 251.235L5.99999 251.235L5.99999 249.36L8.76854 248.657C7.68456 247.671 6.93261 246.797 6.51268 246.035C5.79003 244.756 5.4287 243.13 5.4287 241.157C5.4287 238.608 6.2539 236.416 7.90429 234.58C9.9746 232.578 12.8164 231.577 16.4297 231.577C20.0332 231.577 22.8994 232.554 25.0283 234.507C27.0596 236.362 28.0752 238.765 28.0752 241.714Z" fill="black"/>
<path d="M16 266V290.885M16 290.885L23.5 283.385M16 290.885L8.5 283.385" stroke="black" stroke-width="3"/>
</svg>
