<svg width="34" height="356" viewBox="0 0 34 356" fill="none" xmlns="http://www.w3.org/2000/svg">
<path d="M26.3818 0.141003L26.3818 4.19336L5.86139 16.9885L26.3818 16.9885L26.3818 20.2476L1.05029 20.2476L1.05029 16.4022L21.5535 3.41738L1.05029 3.41737L1.05029 0.141001L26.3818 0.141003ZM26.3818 25.9899L26.3818 44.4583L23.2779 44.4583L23.2779 29.3352L15.587 29.3352L15.587 43.3202L12.6556 43.3202L12.6556 29.3352L4.068 29.3352L4.068 44.7169L1.05029 44.7169L1.05029 25.9899L26.3818 25.9899ZM26.3818 52.9423L10.7242 52.9423C8.88485 52.9423 7.35587 53.2872 6.13729 53.977C4.29792 55.0001 3.37824 56.7245 3.37824 59.1502C3.37824 62.0587 4.37265 64.036 6.36146 65.0822C7.44209 65.6455 8.89634 65.9271 10.7242 65.9271L26.3818 65.9271L26.3818 69.4104L12.1555 69.4104C9.04004 69.4104 6.64312 68.9908 4.96469 68.1516C1.90675 66.6111 0.377771 63.7026 0.377771 59.4261C0.377772 55.1496 1.90675 52.2468 4.96469 50.7179C6.64312 49.8787 9.04004 49.459 12.1555 49.459L26.3818 49.459L26.3818 52.9423ZM26.3818 75.0665L26.3818 93.5349L23.2779 93.5349L23.2779 78.4118L15.587 78.4118L15.587 92.3968L12.6555 92.3968L12.6555 78.4118L4.068 78.4118L4.068 93.7936L1.05029 93.7936L1.05029 75.0665L26.3818 75.0665ZM14.7766 110.072C14.7766 111.681 15.0985 112.952 15.7422 113.883C16.386 114.826 17.5471 115.297 19.2255 115.297C21.0304 115.297 22.2605 114.642 22.9158 113.331C23.2607 112.63 23.4331 111.693 23.4331 110.52L23.4331 102.14L14.7766 102.14L14.7766 110.072ZM26.3818 98.7081L26.3818 110.434C26.3818 112.365 26.1002 113.958 25.5369 115.211C24.4562 117.59 22.4617 118.78 19.5532 118.78C18.0357 118.78 16.7941 118.464 15.8285 117.832C14.8628 117.211 14.0868 116.337 13.5005 115.211C13.0981 116.199 12.5693 116.941 11.9141 117.435C11.2588 117.941 10.1954 118.223 8.7239 118.28L5.32682 118.401C4.36115 118.435 3.64265 118.516 3.17131 118.642C2.36659 118.849 1.84926 119.217 1.61934 119.746L1.05029 119.746L1.05029 115.538C1.26871 115.423 1.55037 115.331 1.89525 115.262C2.24013 115.193 2.9069 115.136 3.89556 115.09L8.12036 114.883C9.77579 114.803 10.8852 114.188 11.4485 113.038C11.7589 112.383 11.9141 111.354 11.9141 109.951L11.9141 102.14L1.05029 102.14L1.05029 98.7081L26.3818 98.7081ZM27.0716 134.748C27.0716 139.22 25.6346 142.531 22.7606 144.681C20.5188 146.359 17.6506 147.198 14.1558 147.198C10.3736 147.198 7.22941 146.239 4.72327 144.319C1.78029 142.065 0.308792 138.852 0.308792 134.679C0.308792 130.782 1.59635 127.718 4.17146 125.488C6.65461 123.499 9.79303 122.505 13.5867 122.505C17.0125 122.505 19.944 123.356 22.3812 125.057C25.5081 127.241 27.0716 130.472 27.0716 134.748ZM3.37824 135.093C3.37824 138.117 4.45886 140.301 6.62012 141.646C8.79287 143.002 11.2875 143.681 14.104 143.681C17.0815 143.681 19.4785 142.899 21.2948 141.335C23.1112 139.783 24.0194 137.657 24.0194 134.955C24.0194 132.334 23.1169 130.196 21.3121 128.54C19.5187 126.885 16.8688 126.057 13.3626 126.057C10.5575 126.057 8.18933 126.764 6.258 128.178C4.33816 129.604 3.37824 131.909 3.37824 135.093ZM33.0725 136.473L33.0725 139.697L29.4858 139.697L29.4858 136.473L33.0725 136.473ZM33.0725 130.782L33.0725 134.007L29.4858 134.007L29.4858 130.782L33.0725 130.782ZM26.3818 151.63L26.3818 169.202L23.2779 169.202L23.2779 155.062L15.587 155.062L15.587 167.495L12.5693 167.495L12.5693 155.062L1.05029 155.062L1.05029 151.63L26.3818 151.63ZM26.3818 173.22L26.3818 190.791L23.2779 190.791L23.2779 176.651L15.587 176.651L15.587 189.084L12.5693 189.084L12.5693 176.651L1.05029 176.651L1.05029 173.22L26.3818 173.22ZM26.3818 194.482L26.3818 198.534L5.86138 211.329L26.3818 211.329L26.3818 214.588L1.05028 214.588L1.05028 210.743L21.5535 197.758L1.05028 197.758L1.05028 194.482L26.3818 194.482ZM26.3818 223.728L10.7242 223.728C8.88484 223.728 7.35586 224.073 6.13728 224.762C4.29792 225.785 3.37823 227.51 3.37823 229.935C3.37823 232.844 4.37264 234.821 6.36146 235.867C7.44208 236.431 8.89633 236.712 10.7242 236.712L26.3818 236.712L26.3818 240.196L12.1555 240.196C9.04004 240.196 6.64311 239.776 4.96469 238.937C1.90674 237.396 0.377764 234.488 0.377764 230.211C0.377764 225.935 1.90674 223.032 4.96469 221.503C6.64311 220.664 9.04004 220.244 12.1555 220.244L26.3818 220.244L26.3818 223.728ZM26.3818 245.524L26.3818 249.576L5.86138 262.372L26.3818 262.372L26.3818 265.631L1.05028 265.631L1.05028 261.785L21.5535 248.801L1.05028 248.801L1.05028 245.524L26.3818 245.524ZM27.0371 281.995C27.0371 284.375 26.5773 286.433 25.6576 288.169C24.3355 290.686 22.0191 292.227 18.7082 292.79L18.7082 289.393C20.5591 288.979 21.9041 288.123 22.7433 286.824C23.594 285.525 24.0194 283.886 24.0194 281.909C24.0194 279.564 23.1399 277.587 21.381 275.977C19.6221 274.379 17.001 273.58 13.5177 273.58C10.5058 273.58 8.05137 274.241 6.15453 275.563C4.26917 276.885 3.3265 279.041 3.3265 282.03C3.3265 284.318 3.98752 286.209 5.30957 287.703C6.64311 289.209 8.79287 289.979 11.7588 290.014L11.7588 282.082L14.6041 282.082L14.6041 293.204L1.05028 293.204L1.05028 290.997L4.30941 290.169C3.03335 289.008 2.14815 287.979 1.65382 287.082C0.803115 285.576 0.377762 283.662 0.377762 281.34C0.377762 278.34 1.34918 275.759 3.29201 273.597C5.72917 271.241 9.07452 270.062 13.3281 270.062C17.5701 270.062 20.9442 271.212 23.4503 273.511C25.8415 275.696 27.0371 278.524 27.0371 281.995Z" fill="black"/>
<path d="M12.5 314V353.5M12.5 353.5L20 346M12.5 353.5L5 346" stroke="black" stroke-width="3"/>
</svg>
