<svg width="16" height="22" viewBox="0 0 16 22" fill="none" xmlns="http://www.w3.org/2000/svg">
<path d="M7.99984 0.166626C3.80734 0.166626 0.416504 3.55746 0.416504 7.74996C0.416504 13.4375 7.99984 21.8333 7.99984 21.8333C7.99984 21.8333 15.5832 13.4375 15.5832 7.74996C15.5832 3.55746 12.1923 0.166626 7.99984 0.166626ZM2.58317 7.74996C2.58317 4.75996 5.00984 2.33329 7.99984 2.33329C10.9898 2.33329 13.4165 4.75996 13.4165 7.74996C13.4165 10.87 10.2965 15.5391 7.99984 18.4533C5.7465 15.5608 2.58317 10.8375 2.58317 7.74996Z" fill="black"/>
<path d="M7.99984 10.4583C9.49561 10.4583 10.7082 9.24573 10.7082 7.74996C10.7082 6.25419 9.49561 5.04163 7.99984 5.04163C6.50407 5.04163 5.2915 6.25419 5.2915 7.74996C5.2915 9.24573 6.50407 10.4583 7.99984 10.4583Z" fill="black"/>
</svg>
