<svg width="255" height="29" viewBox="0 0 255 29" fill="none" xmlns="http://www.w3.org/2000/svg">
<g clip-path="url(#clip0_527_112)">
<path d="M62.2136 5.65869V8.43626H52.1138V13.5203H61.6273V16.2715H52.1138V24.657H48.73V5.65869H62.2136Z" fill="#1C1C1B"/>
<path d="M69.6729 13.6503C67.6744 13.6503 66.5286 14.436 66.5286 17.2664V24.657H63.3574V10.558H66.4749V13.0737C67.2471 11.5021 68.6324 10.558 70.3645 10.5316C70.604 10.5316 70.9509 10.558 71.1904 10.5844V13.7295C70.6577 13.6767 70.1519 13.6503 69.6708 13.6503H69.6729Z" fill="#1C1C1B"/>
<path d="M81.3975 15.8512V15.5893C81.3975 13.1792 79.9853 12.4442 78.4121 12.4442C76.8389 12.4442 75.6146 13.2828 75.5341 14.9863H72.4166C72.6293 12.1031 75.0551 10.1377 78.5195 10.1377C81.9838 10.1377 84.6491 11.6848 84.5686 16.1903C84.5686 16.8968 84.515 18.5496 84.515 19.8328C84.515 21.6155 84.6739 23.4753 84.9423 24.655H82.0375C81.9301 24.0519 81.8248 23.7108 81.7712 22.7423C80.8648 24.2631 79.1595 24.9961 77.0557 24.9961C73.9382 24.9961 71.7539 23.3454 71.7539 20.7769C71.7539 17.2664 76.1514 16.375 81.3995 15.8512H81.3975ZM75.1088 20.6998C75.1088 21.9322 76.1473 22.6652 77.7473 22.6652C80.0927 22.6652 81.478 21.4855 81.478 19.1018V18.0278C76.9483 18.4481 75.1088 19.0755 75.1088 20.7018V20.6998Z" fill="#1C1C1B"/>
<path d="M91.817 24.9981C88.4063 24.9981 87.021 22.7972 87.021 19.443V10.5601H90.1922V18.6836C90.1922 20.5963 90.4585 22.4581 92.8307 22.4581C95.2029 22.4581 96.0555 20.6247 96.0555 18.0826V10.5621H99.2267V24.6611H96.0555V22.7221C95.2297 24.19 93.7638 25.0022 91.819 25.0022L91.817 24.9981Z" fill="#1C1C1B"/>
<path d="M127.282 5.65869H130.827L126.324 24.657H122.327L119.076 10.087L115.878 24.657H111.827L107.297 5.65869H110.974L114.065 20.3343L117.129 5.65869H121.045L124.349 20.3607L127.28 5.65869H127.282Z" fill="#1C1C1B"/>
<path d="M136.503 24.9981C133.092 24.9981 131.707 22.7972 131.707 19.443V10.5601H134.878V18.6836C134.878 20.5963 135.144 22.4581 137.516 22.4581C139.888 22.4581 140.741 20.6247 140.741 18.0826V10.5621H143.912V24.6611H140.741V22.7221C139.915 24.19 138.449 25.0022 136.505 25.0022L136.503 24.9981Z" fill="#1C1C1B"/>
<path d="M154.303 10.2433C157.767 10.2433 159.179 12.4442 159.179 15.7984V24.655H156.008V16.5578C156.008 14.6452 155.715 12.7833 153.291 12.7833C150.868 12.7833 149.961 14.6167 149.961 17.1588V24.6529H146.79V10.558H149.961V12.5234C150.787 11.0554 152.307 10.2433 154.305 10.2433H154.303Z" fill="#1C1C1B"/>
<path d="M174.74 5.65869V24.657H171.569V22.7972C170.716 24.186 169.224 24.9981 167.306 24.9981C163.922 24.9981 161.071 22.1414 161.071 17.6075C161.071 13.0737 163.922 10.2433 167.306 10.2433C169.224 10.2433 170.716 11.0555 171.569 12.4442V5.65869H174.74ZM164.374 17.6075C164.374 20.5942 165.894 22.4561 167.997 22.4561C170.101 22.4561 171.701 20.8582 171.701 17.6075C171.701 14.3569 170.076 12.7853 167.997 12.7853C165.918 12.7853 164.374 14.6452 164.374 17.6075Z" fill="#1C1C1B"/>
<path d="M183.88 22.4032C185.532 22.4032 186.839 21.7474 187.398 20.4378H190.516C189.849 22.6916 187.718 24.9981 184.014 24.9981C179.404 24.9981 176.766 21.5383 176.766 17.5039C176.766 13.2584 179.724 10.2453 183.8 10.2453C188.197 10.2453 190.941 13.7558 190.675 18.5008H179.988C180.201 21.1221 182.067 22.4053 183.878 22.4053L183.88 22.4032ZM187.45 16.2187C187.369 14.0178 185.664 12.6818 183.8 12.6818C182.307 12.6818 180.255 13.5467 179.988 16.2187H187.45Z" fill="#1C1C1B"/>
<path d="M199.015 13.6503C197.017 13.6503 195.871 14.436 195.871 17.2664V24.657H192.7V10.558H195.817V13.0737C196.589 11.5021 197.975 10.558 199.707 10.5316C199.946 10.5316 200.293 10.558 200.533 10.5844V13.7295C200 13.6767 199.494 13.6503 199.013 13.6503H199.015Z" fill="#1C1C1B"/>
<path d="M212.418 10.558L214.896 20.5678L217.002 10.558H220.439L216.628 24.657H213.618L210.794 14.2269L207.969 24.657H204.959L201.148 10.558H204.585L206.691 20.5678L209.142 10.558H212.418Z" fill="#1C1C1B"/>
<path d="M230.273 15.8512V15.5893C230.273 13.1792 228.86 12.4442 227.287 12.4442C225.714 12.4442 224.49 13.2828 224.409 14.9863H221.292C221.504 12.1031 223.93 10.1377 227.395 10.1377C230.859 10.1377 233.524 11.6848 233.444 16.1903C233.444 16.8968 233.39 18.5496 233.39 19.8328C233.39 21.6155 233.549 23.4753 233.815 24.655H230.911C230.803 24.0519 230.698 23.7108 230.644 22.7423C229.738 24.2631 228.033 24.9961 225.929 24.9961C222.811 24.9961 220.627 23.3454 220.627 20.7769C220.627 17.2664 225.024 16.375 230.273 15.8512ZM223.984 20.6998C223.984 21.9322 225.022 22.6652 226.622 22.6652C228.968 22.6652 230.353 21.4855 230.353 19.1018V18.0278C225.823 18.4481 223.984 19.0755 223.984 20.7018V20.6998Z" fill="#1C1C1B"/>
<path d="M236.107 24.657V5.65869H239.279V24.657H236.107Z" fill="#1C1C1B"/>
<path d="M255 5.65869V24.657H251.829V22.7972C250.976 24.186 249.484 24.9981 247.566 24.9981C244.182 24.9981 241.331 22.1414 241.331 17.6075C241.331 13.0737 244.182 10.2433 247.566 10.2433C249.484 10.2433 250.976 11.0555 251.829 12.4442V5.65869H255ZM244.634 17.6075C244.634 20.5942 246.153 22.4561 248.257 22.4561C250.361 22.4561 251.961 20.8582 251.961 17.6075C251.961 14.3569 250.336 12.7853 248.257 12.7853C246.178 12.7853 244.634 14.6452 244.634 17.6075Z" fill="#1C1C1B"/>
<path d="M28.3918 0V20.714H26.4594L23.1974 4.08717H15.2385L11.4046 21.5079L7.86185 4.08717H0L6.93899 29H15.1415L18.9279 12.3914L22.6647 29H32.6035V20.714H36.8173V0H28.3918Z" fill="#FF5300"/>
</g>
<defs>
<clipPath id="clip0_527_112">
<rect width="255" height="29" fill="white"/>
</clipPath>
</defs>
</svg>
